<svg width="39" height="39" viewBox="0 0 39 39" fill="none" xmlns="http://www.w3.org/2000/svg">
<g clip-path="url(#clip0_0_4764)">
<path d="M35.5114 11.7333H26.4338V2.51917C26.4338 1.13106 25.3098 0 23.9177 0H13.9843C12.5979 0 11.4682 1.12534 11.4682 2.51917V7.47182H15.3423V3.87872H22.5541V22.5697H19.3704V26.4484H26.4281V15.612H34.1477V22.5697H30.2851V26.4484H35.5057C36.8921 26.4484 38.0218 25.3231 38.0218 23.9292V14.2524C38.0218 12.8643 36.8978 11.7333 35.5114 11.7333Z" fill="#247CFF"/>
<path d="M22.5597 34.143H15.3479V15.612H18.5887V11.7332H11.4738V22.564H3.87406V15.612H7.67396V11.7332H2.51614C1.12399 11.7332 0 12.8643 0 14.2524V23.9292C0 25.3173 1.12399 26.4484 2.51614 26.4484H11.4738V35.5083C11.4738 36.8964 12.5978 38.0274 13.99 38.0274H23.9233C25.3098 38.0274 26.4395 36.9021 26.4395 35.5083V30.2985H22.5654V34.143H22.5597Z" fill="#247CFF"/>
</g>
<defs>
<clipPath id="clip0_0_4764">
<rect width="38.0217" height="38.0217" fill="white"/>
</clipPath>
</defs>
</svg>
