<svg width="96" height="19" viewBox="0 0 96 19" fill="none" xmlns="http://www.w3.org/2000/svg">
<path d="M6.18487 1.06461C8.04371 1.06461 9.67442 1.42793 11.077 2.15456C12.4965 2.8812 13.5864 3.92046 14.3469 5.27235C15.1242 6.60733 15.5129 8.162 15.5129 9.93635C15.5129 11.7107 15.1242 13.2654 14.3469 14.6003C13.5864 15.9184 12.4965 16.9408 11.077 17.6674C9.67442 18.3941 8.04371 18.7574 6.18487 18.7574H0V1.06461H6.18487ZM6.05813 15.741C7.91697 15.741 9.35335 15.234 10.3673 14.2201C11.3812 13.2062 11.8881 11.7783 11.8881 9.93635C11.8881 8.09441 11.3812 6.65803 10.3673 5.62722C9.35335 4.57951 7.91697 4.05565 6.05813 4.05565H3.5487V15.741H6.05813Z" fill="#242424"/>
<path d="M24.4048 18.9855C23.0529 18.9855 21.8362 18.6898 20.7547 18.0983C19.6732 17.49 18.8198 16.6366 18.1946 15.5382C17.5862 14.4398 17.2821 13.1724 17.2821 11.736C17.2821 10.2997 17.5947 9.03228 18.2199 7.93387C18.8621 6.83546 19.7324 5.99054 20.8308 5.39909C21.9292 4.79074 23.1543 4.48657 24.5062 4.48657C25.8581 4.48657 27.0832 4.79074 28.1816 5.39909C29.28 5.99054 30.1419 6.83546 30.7671 7.93387C31.4093 9.03228 31.7303 10.2997 31.7303 11.736C31.7303 13.1724 31.4008 14.4398 30.7418 15.5382C30.0996 16.6366 29.2209 17.49 28.1056 18.0983C27.0072 18.6898 25.7736 18.9855 24.4048 18.9855ZM24.4048 15.8931C25.047 15.8931 25.6469 15.741 26.2045 15.4368C26.7791 15.1158 27.2353 14.6426 27.5733 14.0173C27.9113 13.3921 28.0802 12.6317 28.0802 11.736C28.0802 10.4011 27.7254 9.3787 27.0156 8.66896C26.3228 7.94232 25.4694 7.579 24.4555 7.579C23.4416 7.579 22.5882 7.94232 21.8954 8.66896C21.2194 9.3787 20.8815 10.4011 20.8815 11.736C20.8815 13.071 21.211 14.1018 21.87 14.8285C22.546 15.5382 23.3909 15.8931 24.4048 15.8931Z" fill="#242424"/>
<path d="M33.4209 11.736C33.4209 10.2828 33.7166 9.01538 34.3081 7.93387C34.8995 6.83546 35.7191 5.99054 36.7668 5.39909C37.8145 4.79074 39.0143 4.48657 40.3662 4.48657C42.1068 4.48657 43.5431 4.92593 44.6753 5.80465C45.8244 6.66648 46.5933 7.88317 46.982 9.45474H43.1545C42.9517 8.84639 42.6053 8.37323 42.1152 8.03526C41.6421 7.68039 41.0506 7.50296 40.3409 7.50296C39.327 7.50296 38.5243 7.87473 37.9328 8.61826C37.3414 9.3449 37.0457 10.3842 37.0457 11.736C37.0457 13.071 37.3414 14.1103 37.9328 14.8538C38.5243 15.5805 39.327 15.9438 40.3409 15.9438C41.7772 15.9438 42.7151 15.3016 43.1545 14.0173H46.982C46.5933 15.5382 45.8244 16.7465 44.6753 17.6421C43.5262 18.5377 42.0899 18.9855 40.3662 18.9855C39.0143 18.9855 37.8145 18.6898 36.7668 18.0983C35.7191 17.49 34.8995 16.6451 34.3081 15.5636C33.7166 14.4652 33.4209 13.1893 33.4209 11.736Z" fill="#242424"/>
<path d="M48.6692 11.6853C48.6692 10.2659 48.948 9.00693 49.5057 7.90852C50.0802 6.81011 50.8576 5.96519 51.8377 5.37374C52.8178 4.78229 53.9078 4.48657 55.1076 4.48657C56.0201 4.48657 56.8904 4.68935 57.7184 5.09491C58.5464 5.48358 59.2055 6.00743 59.6955 6.66648V0H63.2949V18.7574H59.6955V16.6789C59.2562 17.3717 58.6394 17.9294 57.8451 18.3518C57.0509 18.7743 56.1299 18.9855 55.0822 18.9855C53.8993 18.9855 52.8178 18.6813 51.8377 18.073C50.8576 17.4647 50.0802 16.6113 49.5057 15.5129C48.948 14.3976 48.6692 13.1217 48.6692 11.6853ZM59.7209 11.736C59.7209 10.8742 59.5519 10.1391 59.2139 9.53078C58.8759 8.90554 58.4197 8.43238 57.8451 8.1113C57.2706 7.77333 56.6538 7.60435 55.9947 7.60435C55.3357 7.60435 54.7273 7.76488 54.1697 8.08596C53.612 8.40703 53.1558 8.88019 52.8009 9.50543C52.4629 10.1138 52.2939 10.8404 52.2939 11.6853C52.2939 12.5303 52.4629 13.2738 52.8009 13.916C53.1558 14.5412 53.612 15.0228 54.1697 15.3608C54.7442 15.6988 55.3526 15.8677 55.9947 15.8677C56.6538 15.8677 57.2706 15.7072 57.8451 15.3861C58.4197 15.0482 58.8759 14.575 59.2139 13.9667C59.5519 13.3414 59.7209 12.5979 59.7209 11.736Z" fill="#242424"/>
<path d="M72.9964 18.9855C71.6445 18.9855 70.4278 18.6898 69.3463 18.0983C68.2648 17.49 67.4114 16.6366 66.7862 15.5382C66.1778 14.4398 65.8736 13.1724 65.8736 11.736C65.8736 10.2997 66.1863 9.03228 66.8115 7.93387C67.4537 6.83546 68.3239 5.99054 69.4223 5.39909C70.5208 4.79074 71.7459 4.48657 73.0978 4.48657C74.4497 4.48657 75.6748 4.79074 76.7732 5.39909C77.8716 5.99054 78.7335 6.83546 79.3587 7.93387C80.0008 9.03228 80.3219 10.2997 80.3219 11.736C80.3219 13.1724 79.9924 14.4398 79.3333 15.5382C78.6912 16.6366 77.8125 17.49 76.6972 18.0983C75.5988 18.6898 74.3652 18.9855 72.9964 18.9855ZM72.9964 15.8931C73.6385 15.8931 74.2384 15.741 74.7961 15.4368C75.3706 15.1158 75.8269 14.6426 76.1649 14.0173C76.5028 13.3921 76.6718 12.6317 76.6718 11.736C76.6718 10.4011 76.317 9.3787 75.6072 8.66896C74.9144 7.94232 74.061 7.579 73.0471 7.579C72.0332 7.579 71.1798 7.94232 70.487 8.66896C69.811 9.3787 69.473 10.4011 69.473 11.736C69.473 13.071 69.8026 14.1018 70.4616 14.8285C71.1376 15.5382 71.9825 15.8931 72.9964 15.8931Z" fill="#242424"/>
<path d="M82.0125 11.736C82.0125 10.2828 82.3082 9.01538 82.8997 7.93387C83.4911 6.83546 84.3107 5.99054 85.3584 5.39909C86.4061 4.79074 87.6059 4.48657 88.9578 4.48657C90.6983 4.48657 92.1347 4.92593 93.2669 5.80465C94.416 6.66648 95.1849 7.88317 95.5736 9.45474H91.7461C91.5433 8.84639 91.1969 8.37323 90.7068 8.03526C90.2336 7.68039 89.6422 7.50296 88.9324 7.50296C87.9185 7.50296 87.1159 7.87473 86.5244 8.61826C85.933 9.3449 85.6372 10.3842 85.6372 11.736C85.6372 13.071 85.933 14.1103 86.5244 14.8538C87.1159 15.5805 87.9185 15.9438 88.9324 15.9438C90.3688 15.9438 91.3067 15.3016 91.7461 14.0173H95.5736C95.1849 15.5382 94.416 16.7465 93.2669 17.6421C92.1178 18.5377 90.6815 18.9855 88.9578 18.9855C87.6059 18.9855 86.4061 18.6898 85.3584 18.0983C84.3107 17.49 83.4911 16.6451 82.8997 15.5636C82.3082 14.4652 82.0125 13.1893 82.0125 11.736Z" fill="#242424"/>
</svg>
