<svg width="348" height="444" viewBox="0 0 348 444" fill="none" xmlns="http://www.w3.org/2000/svg">
<g opacity="0.06">
<path d="M22.9772 306.36L106.061 306.36L106.061 413.715C106.061 429.888 116.348 443.067 129.09 443.067L220.007 443.067C232.696 443.067 243.036 429.955 243.036 413.715L243.036 356.011L207.578 356.011L207.578 397.875L141.571 397.875L141.571 180.102L170.71 180.102L170.71 134.91L106.113 134.91L106.113 261.168L35.458 261.168L35.458 180.102L70.8115 180.102L70.8115 134.91L23.0295 134.91C10.3398 134.91 2.6687e-05 148.022 2.52673e-05 164.261L1.54107e-05 277.008C1.39968e-05 293.181 10.2875 306.36 22.9772 306.36Z" fill="#247CFF"/>
<path d="M141.519 45.2584L207.526 45.2584L207.526 261.168L177.864 261.168L177.864 306.36L242.984 306.36L242.984 180.168L312.542 180.168L312.542 261.168L277.763 261.168L277.763 306.36L324.971 306.36C337.713 306.36 348 293.181 348 277.008L348 164.261C348 148.088 337.713 134.91 324.971 134.91L242.984 134.91L242.984 29.3514C242.984 13.1782 232.696 1.54928e-05 219.954 1.43789e-05L129.038 6.43068e-06C116.348 5.32131e-06 106.008 13.1116 106.008 29.3514L106.008 90.0509L141.466 90.0509L141.466 45.2584L141.519 45.2584Z" fill="#247CFF"/>
</g>
</svg>
